<svg width="21" height="18" viewBox="0 0 21 18" fill="none" xmlns="http://www.w3.org/2000/svg">
<path fill-rule="evenodd" clip-rule="evenodd" d="M10.4801 5.849C11.0271 5.841 11.3541 5.516 11.3521 4.98C11.3501 4.466 11.0581 4.085 10.5041 4.098C9.95506 4.11 9.57506 4.367 9.59606 5.004C9.61405 5.58 9.92906 5.854 10.4791 5.849H10.4801ZM11.3771 12.026C11.3771 11.079 11.3821 10.132 11.3751 9.186C11.3711 8.546 11.1051 8.107 10.4471 8.102C9.80406 8.097 9.58206 8.533 9.58206 9.143C9.58206 11.063 9.58605 12.984 9.57705 14.904C9.57506 15.544 9.91706 15.882 10.4631 15.976C10.9391 16.058 11.3681 15.511 11.3751 14.867C11.3861 13.92 11.3781 12.973 11.3771 12.027V12.026ZM2.83406 13.077H2.82806C2.82806 13.471 2.81006 13.867 2.83106 14.261C2.93506 16.183 4.68205 17.974 6.41106 17.987C7.00906 17.991 7.42806 17.766 7.46506 17.144C7.50206 16.534 7.17406 16.234 6.53306 16.175C5.27106 16.063 4.64906 15.311 4.60806 14.005C4.59306 13.505 4.55006 13.003 4.58306 12.505C4.66006 11.318 4.37806 10.279 3.61106 9.371C3.49706 9.236 3.52006 8.811 3.63906 8.65C4.29505 7.762 4.68406 6.81 4.59306 5.664C4.55206 5.141 4.57806 4.611 4.59006 4.085C4.62006 2.757 5.35505 1.922 6.64106 1.836C7.29106 1.793 7.47806 1.394 7.46206 0.85C7.44706 0.296 7.12006 0.00799998 6.56606 0.02C5.14206 0.054 4.08006 0.704 3.34806 1.988C2.65506 3.205 2.84906 4.536 2.83406 5.841C2.81806 7.12 2.17006 7.921 0.949055 8.073C0.409055 8.14 0.0200551 8.329 0.00105513 8.963C-0.0179449 9.59 0.358055 9.825 0.882055 9.941C2.37506 10.271 2.83606 10.874 2.83406 12.444V13.076V13.077ZM18.1161 4.886H18.1001C18.1001 4.464 18.1201 4.041 18.0971 3.621C17.9911 1.728 16.1291 -0.096 14.4271 0.00399998C13.8461 0.038 13.4241 0.295 13.4151 0.93C13.4061 1.558 13.7951 1.758 14.3851 1.888C14.9271 2.007 15.5291 2.337 15.8751 2.773C16.1891 3.169 16.2421 3.826 16.3251 4.381C16.4871 5.46 16.3991 6.625 16.7681 7.609C17.1271 8.563 17.6081 9.245 16.8291 10.274C16.0371 11.321 16.3771 12.707 16.3351 13.958C16.2891 15.328 15.6111 16.113 14.3011 16.197C13.7361 16.234 13.4671 16.473 13.4801 17.07C13.4921 17.68 13.7531 17.972 14.3571 17.997C15.8821 18.06 16.8471 17.141 17.6201 15.952C18.3701 14.797 18.0551 13.45 18.1001 12.176C18.1431 10.943 18.8421 10.11 20.0221 9.956C20.5761 9.885 21.0101 9.661 21.0001 8.996C20.9891 8.338 20.5851 8.123 20.0021 8.063C18.8721 7.948 18.1381 7.083 18.1171 5.913C18.1111 5.57 18.1161 5.228 18.1161 4.886Z" fill="#9EA1AA"/>
</svg>
