<svg width="18" height="18" viewBox="0 0 18 18" fill="none" xmlns="http://www.w3.org/2000/svg">
<path fill-rule="evenodd" clip-rule="evenodd" d="M4.292 13.72V18C3.51 17.956 2.732 18.086 1.973 17.834C0.912 17.48 0.093 16.45 0.039 15.338C0.013 14.804 0.034 14.267 0.034 13.721H4.292V13.72ZM11.145 13.717C11.148 13.775 11.154 13.831 11.154 13.887C11.154 15.193 11.153 16.5 11.157 17.807C11.157 17.943 11.13 17.999 10.977 17.997C9.66067 17.9928 8.34433 17.9928 7.028 17.997C6.918 17.997 6.862 17.979 6.862 17.847C6.867 16.499 6.865 15.152 6.866 13.805C6.866 13.782 6.87 13.76 6.874 13.717H11.144H11.145ZM17.968 13.719C17.976 13.729 17.99 13.738 17.99 13.746C17.983 14.346 18.035 14.953 17.955 15.543C17.76 16.973 16.488 17.964 15.166 17.975C14.692 17.978 14.218 17.975 13.73 17.975V13.72H17.968V13.719ZM4.298 6.895V11.148C4.244 11.152 4.188 11.158 4.134 11.158C2.824 11.159 1.514 11.158 0.205 11.161C0.08 11.161 0.018 11.142 0.019 10.994C0.024 9.677 0.022 8.36 0.023 7.042C0.023 6.997 0.03 6.952 0.035 6.895H4.298ZM15.213 6.44941e-08C16.53 0.00100006 17.768 1.084 17.947 2.391C17.977 2.602 17.993 2.817 17.994 3.03L17.996 6.95V11.085H6.872V0.0100001C6.935 0.00600006 6.995 6.44941e-08 7.056 6.44941e-08C9.775 6.44941e-08 12.494 -0.00199994 15.213 6.44941e-08ZM4.295 6.44941e-08V4.25H0.035C0.03 4.175 0.023 4.097 0.021 4.019L0 2.845V2.67C0.033 2.513 0.06 2.355 0.099 2.2C0.255718 1.5721 0.617751 1.01458 1.12759 0.61598C1.63743 0.217385 2.26584 0.000578334 2.913 6.44941e-08H4.295Z" fill="#9EA1AA"/>
</svg>
