<svg width="64" height="42" viewBox="0 0 64 42" fill="none" xmlns="http://www.w3.org/2000/svg">
<path d="M48.9318 0.0215977L43.5977 2.55243C43.5706 2.56523 43.5463 2.58324 43.5261 2.60546C43.5059 2.62768 43.4904 2.65366 43.4802 2.6819C43.4701 2.71014 43.4657 2.74011 43.4672 2.77007C43.4687 2.80004 43.4761 2.8294 43.4889 2.85651L51.6015 19.9577C54.6158 26.3195 53.8085 31.1453 49.2253 33.3262C45.5164 35.0864 42.3147 33.8583 39.8167 29.5699L30.2114 9.32057C26.3163 1.11205 21.011 -1.06361 14.7176 1.92202C10.6233 3.86438 8.24855 7.33627 8.29573 11.7426C8.29665 11.7946 8.27972 11.8455 8.24775 11.8866C8.21579 11.9277 8.17072 11.9567 8.12003 11.9686C8.06935 11.9805 8.01611 11.9748 7.96915 11.9522C7.92221 11.9298 7.88437 11.8919 7.86193 11.8448L5.765 7.42669C5.75222 7.39956 5.73419 7.37522 5.71195 7.3551C5.6897 7.33497 5.66368 7.31947 5.6354 7.30948C5.60712 7.29947 5.57714 7.2952 5.5472 7.29687C5.51725 7.29853 5.48793 7.30614 5.46094 7.31922L0.12816 9.8422C0.0746868 9.86802 0.0334742 9.91377 0.0133789 9.96965C-0.0067164 10.0255 -0.00409057 10.0871 0.0206921 10.141L14.7516 41.2031C14.7778 41.2577 14.8244 41.2997 14.8813 41.3201C14.9383 41.3405 15.001 41.3375 15.0558 41.312L20.3898 38.7811C20.417 38.7683 20.4413 38.7503 20.4615 38.7281C20.4816 38.7058 20.4972 38.6799 20.5073 38.6516C20.5174 38.6234 20.5219 38.5934 20.5203 38.5634C20.5189 38.5334 20.5115 38.5042 20.4987 38.477L12.6128 21.8542C9.40057 15.0808 10.01 10.183 14.9352 7.8461C18.7149 6.05315 21.6532 7.25894 24.2915 11.8528C24.295 11.8581 24.2981 11.8638 24.3007 11.8698L33.8116 31.9225C37.4812 39.6553 43.1809 42.3106 49.2005 39.4547C53.853 37.2477 55.7822 33.9252 55.6695 29.5554C55.6683 29.5033 55.685 29.4523 55.7169 29.4109C55.7487 29.3696 55.7938 29.3405 55.8445 29.3283C55.8954 29.3162 55.9488 29.3218 55.9958 29.3444C56.0429 29.3669 56.0808 29.4048 56.1034 29.452L58.2212 33.9173C58.234 33.9444 58.2521 33.9687 58.2743 33.989C58.2965 34.0091 58.3225 34.0247 58.3508 34.0348C58.3789 34.0449 58.4089 34.0493 58.4388 34.0479C58.4688 34.0463 58.4982 34.0389 58.5253 34.0261L63.8594 31.4952C63.8866 31.4824 63.9109 31.4644 63.931 31.4422C63.9511 31.42 63.9666 31.3939 63.9766 31.3656C63.9866 31.3373 63.9909 31.3074 63.9892 31.2774C63.9876 31.2475 63.98 31.2182 63.9668 31.1912L49.2358 0.130381C49.2097 0.0758206 49.1631 0.0337776 49.1062 0.0134043C49.0493 -0.00696923 48.9866 -0.00402411 48.9318 0.0215977Z" fill="#1849EF"/>
</svg>
