<svg width="24" height="24" viewBox="0 0 24 24" fill="none" xmlns="http://www.w3.org/2000/svg">
<path d="M20.6482 2.6742L13.153 8.24105L14.539 4.95668L20.6482 2.6742Z" fill="#E2761B" stroke="#E2761B" stroke-linecap="round" stroke-linejoin="round"/>
<path d="M3.34436 2.6742L10.7794 8.29378L9.46111 4.95668L3.34436 2.6742Z" fill="#E4761B" stroke="#E4761B" stroke-linecap="round" stroke-linejoin="round"/>
<path d="M17.9503 15.5782L15.9541 18.6366L20.2253 19.8117L21.4531 15.646L17.9503 15.5782Z" fill="#E4761B" stroke="#E4761B" stroke-linecap="round" stroke-linejoin="round"/>
<path d="M2.55334 15.646L3.77368 19.8117L8.04487 18.6366L6.04864 15.5782L2.55334 15.646Z" fill="#E4761B" stroke="#E4761B" stroke-linecap="round" stroke-linejoin="round"/>
<path d="M7.80349 10.4106L6.61328 12.2109L10.8543 12.3993L10.7037 7.84183L7.80349 10.4106Z" fill="#E4761B" stroke="#E4761B" stroke-linecap="round" stroke-linejoin="round"/>
<path d="M16.1887 10.4105L13.2509 7.78905L13.153 12.3992L17.3865 12.2109L16.1887 10.4105Z" fill="#E4761B" stroke="#E4761B" stroke-linecap="round" stroke-linejoin="round"/>
<path d="M8.04456 18.6366L10.5907 17.3936L8.39107 15.6761L8.04456 18.6366Z" fill="#E4761B" stroke="#E4761B" stroke-linecap="round" stroke-linejoin="round"/>
<path d="M13.4008 17.3936L15.9544 18.6366L15.6004 15.6761L13.4008 17.3936Z" fill="#E4761B" stroke="#E4761B" stroke-linecap="round" stroke-linejoin="round"/>
<path d="M15.9544 18.6365L13.4008 17.3936L13.6041 19.0584L13.5815 19.7589L15.9544 18.6365Z" fill="#D7C1B3" stroke="#D7C1B3" stroke-linecap="round" stroke-linejoin="round"/>
<path d="M8.04443 18.6365L10.4173 19.7589L10.4022 19.0584L10.5906 17.3936L8.04443 18.6365Z" fill="#D7C1B3" stroke="#D7C1B3" stroke-linecap="round" stroke-linejoin="round"/>
<path d="M10.4561 14.5763L8.33179 13.9511L9.83084 13.2656L10.4561 14.5763Z" fill="#233447" stroke="#233447" stroke-linecap="round" stroke-linejoin="round"/>
<path d="M13.5375 14.5763L14.1627 13.2656L15.6693 13.9511L13.5375 14.5763Z" fill="#233447" stroke="#233447" stroke-linecap="round" stroke-linejoin="round"/>
<path d="M8.04446 18.6366L8.40604 15.5782L6.04822 15.646L8.04446 18.6366Z" fill="#CD6116" stroke="#CD6116" stroke-linecap="round" stroke-linejoin="round"/>
<path d="M15.5931 15.5782L15.9547 18.6366L17.951 15.646L15.5931 15.5782Z" fill="#CD6116" stroke="#CD6116" stroke-linecap="round" stroke-linejoin="round"/>
<path d="M17.3846 12.211L13.1511 12.3993L13.5428 14.5763L14.1681 13.2656L15.6747 13.9511L17.3846 12.211Z" fill="#CD6116" stroke="#CD6116" stroke-linecap="round" stroke-linejoin="round"/>
<path d="M8.33067 13.9511L9.83726 13.2656L10.455 14.5763L10.8542 12.3993L6.61316 12.211L8.33067 13.9511Z" fill="#CD6116" stroke="#CD6116" stroke-linecap="round" stroke-linejoin="round"/>
<path d="M6.61316 12.211L8.39094 15.6761L8.33067 13.9511L6.61316 12.211Z" fill="#E4751F" stroke="#E4751F" stroke-linecap="round" stroke-linejoin="round"/>
<path d="M15.6746 13.9511L15.5992 15.6761L17.3845 12.211L15.6746 13.9511Z" fill="#E4751F" stroke="#E4751F" stroke-linecap="round" stroke-linejoin="round"/>
<path d="M10.8542 12.3993L10.455 14.5763L10.9521 17.145L11.0651 13.7627L10.8542 12.3993Z" fill="#E4751F" stroke="#E4751F" stroke-linecap="round" stroke-linejoin="round"/>
<path d="M13.1521 12.3993L12.9487 13.7552L13.0391 17.145L13.5438 14.5763L13.1521 12.3993Z" fill="#E4751F" stroke="#E4751F" stroke-linecap="round" stroke-linejoin="round"/>
<path d="M13.5446 14.5763L13.0399 17.145L13.4015 17.3936L15.6011 15.6761L15.6765 13.951L13.5446 14.5763Z" fill="#F6851B" stroke="#F6851B" stroke-linecap="round" stroke-linejoin="round"/>
<path d="M8.33179 13.951L8.39205 15.6761L10.5917 17.3936L10.9532 17.145L10.4561 14.5763L8.33179 13.951Z" fill="#F6851B" stroke="#F6851B" stroke-linecap="round" stroke-linejoin="round"/>
<path d="M13.5812 19.7589L13.6038 19.0584L13.4154 18.8926H10.5755L10.4022 19.0584L10.4173 19.7589L8.04443 18.6365L8.87306 19.3145L10.5529 20.4821H13.438L15.1254 19.3145L15.954 18.6365L13.5812 19.7589Z" fill="#C0AD9E" stroke="#C0AD9E" stroke-linecap="round" stroke-linejoin="round"/>
<path d="M13.4014 17.3936L13.0399 17.145H10.9532L10.5916 17.3936L10.4033 19.0584L10.5766 18.8927H13.4165L13.6048 19.0584L13.4014 17.3936Z" fill="#161616" stroke="#161616" stroke-linecap="round" stroke-linejoin="round"/>
<path d="M20.9638 8.60264L21.6041 5.52919L20.6475 2.6742L13.4008 8.05273L16.188 10.4105L20.1277 11.5631L21.0015 10.5461L20.6249 10.275L21.2275 9.72505L20.7605 9.36346L21.3631 8.90395L20.9638 8.60264Z" fill="#763D16" stroke="#763D16" stroke-linecap="round" stroke-linejoin="round"/>
<path d="M2.39478 5.52919L3.03508 8.60264L2.6283 8.90395L3.23093 9.36346L2.77142 9.72505L3.37406 10.275L2.99741 10.5461L3.8637 11.5631L7.80344 10.4105L10.5906 8.05273L3.34393 2.6742L2.39478 5.52919Z" fill="#763D16" stroke="#763D16" stroke-linecap="round" stroke-linejoin="round"/>
<path d="M20.1284 11.5631L16.1886 10.4105L17.3864 12.2109L15.6011 15.6761L17.9514 15.6459H21.4542L20.1284 11.5631Z" fill="#F6851B" stroke="#F6851B" stroke-linecap="round" stroke-linejoin="round"/>
<path d="M7.80382 10.4105L3.86408 11.5631L2.55334 15.6459H6.04864L8.39139 15.6761L6.61361 12.2109L7.80382 10.4105Z" fill="#F6851B" stroke="#F6851B" stroke-linecap="round" stroke-linejoin="round"/>
<path d="M13.1529 12.3993L13.4015 8.05274L14.5465 4.9567H9.46179L10.5917 8.05274L10.8554 12.3993L10.9458 13.7702L10.9533 17.145H13.04L13.055 13.7702L13.1529 12.3993Z" fill="#F6851B" stroke="#F6851B" stroke-linecap="round" stroke-linejoin="round"/>
</svg>
