<svg width="15.000000000000002" height="15.000000000000002" xmlns="http://www.w3.org/2000/svg">

 <g>
  <title>background</title>
  <rect fill="none" id="canvas_background" height="402" width="582" y="-1" x="-1"/>
 </g>
 <g>
  <title>Layer 1</title>
  <path id="svg_1" fill="#9b9b9b" d="m14.7843,9.3197c-0.8146,3.263 -3.7653,5.6803 -7.28062,5.6803c-4.14417,0 -7.50368,-3.3595 -7.50368,-7.50368c0,-3.51531 2.41729,-6.46603 5.6803,-7.2806c0.4794,-0.11968 0.97705,-0.19325 1.48797,-0.21572c-0.22458,0.63801 -0.34674,1.32429 -0.34674,2.0391c0,3.39068 2.74869,6.13937 6.13937,6.13937c0.7148,0 1.4011,-0.12216 2.0391,-0.34674c-0.0225,0.51092 -0.096,1.00857 -0.2157,1.48797zm-13.41999,-1.82338c0,-2.67587 1.71191,-4.95191 4.10027,-5.79263c-0.00489,0.11119 -0.00736,0.22301 -0.00736,0.33541c0,4.14417 3.35951,7.50368 7.50368,7.50368c0.1124,0 0.2242,-0.00247 0.3354,-0.00736c-0.8407,2.38838 -3.1167,4.10028 -5.79262,4.10028c-3.39068,0 -6.13937,-2.7487 -6.13937,-6.13938z" clip-rule="evenodd" fill-rule="evenodd"/>
 </g>
</svg>