<svg width="15" height="15" viewBox="0 0 15 15" fill="none" xmlns="http://www.w3.org/2000/svg">
<path fill-rule="evenodd" clip-rule="evenodd" d="M14.7843 9.3197C13.9697 12.5827 11.019 15 7.50368 15C3.35951 15 0 11.6405 0 7.49632C0 3.98101 2.41729 1.03029 5.6803 0.215716C6.1597 0.0960407 6.65735 0.0224743 7.16827 0C6.94369 0.638007 6.82153 1.32429 6.82153 2.0391C6.82153 5.42978 9.57022 8.17847 12.9609 8.17847C13.6757 8.17847 14.362 8.05631 15 7.83173C14.9775 8.34265 14.904 8.8403 14.7843 9.3197ZM1.36431 7.49632C1.36431 4.82045 3.07622 2.54441 5.46458 1.70369C5.45969 1.81488 5.45722 1.9267 5.45722 2.0391C5.45722 6.18327 8.81673 9.54278 12.9609 9.54278C13.0733 9.54278 13.1851 9.54031 13.2963 9.53542C12.4556 11.9238 10.1796 13.6357 7.50368 13.6357C4.113 13.6357 1.36431 10.887 1.36431 7.49632Z" fill="#FFD84E"/>
</svg>
